<svg width="200" height="200" viewBox="0 0 200 200" xmlns="http://www.w3.org/2000/svg">
  <rect width="200" height="200" rx="28" fill="#0C0C0C"/>
  <!-- Hull -->
  <path d="M 28,138 Q 100,148 172,138 L 165,112 L 36,112 Z" fill="white"/>
  <!-- Cabin -->
  <rect x="48" y="86" width="100" height="26" rx="4" fill="white"/>
  <!-- Portholes -->
  <circle cx="72"  cy="99" r="6" fill="#0C0C0C"/>
  <circle cx="100" cy="99" r="6" fill="#0C0C0C"/>
  <circle cx="128" cy="99" r="6" fill="#0C0C0C"/>
  <!-- Funnel -->
  <rect x="122" y="64" width="14" height="22" rx="3" fill="white"/>
  <!-- Funnel cap -->
  <rect x="118" y="60" width="22" height="7" rx="3" fill="white"/>
  <!-- Waves -->
  <path fill="none" stroke="white" stroke-width="2" stroke-linecap="round" opacity=".35"
    d="M 20,152 Q 50,147 80,152 Q 110,157 140,152 Q 160,148 180,152"/>
  <path fill="none" stroke="white" stroke-width="1.5" stroke-linecap="round" opacity=".18"
    d="M 26,162 Q 54,158 82,162 Q 110,166 138,162 Q 156,159 172,162"/>
</svg>
