<?xml version="1.0" encoding="UTF-8" standalone="no"?>
<svg
   version="1.1"
   width="23.999838"
   height="23.978001"
   id="svg9"
   sodipodi:docname="icon_action_barr.svg"
   inkscape:version="1.4.2 (f4327f4, 2025-05-13)"
   xmlns:inkscape="http://www.inkscape.org/namespaces/inkscape"
   xmlns:sodipodi="http://sodipodi.sourceforge.net/DTD/sodipodi-0.dtd"
   xmlns="http://www.w3.org/2000/svg"
   xmlns:svg="http://www.w3.org/2000/svg">
  <defs
     id="defs9" />
  <sodipodi:namedview
     id="namedview9"
     pagecolor="#505050"
     bordercolor="#eeeeee"
     borderopacity="1"
     inkscape:showpageshadow="0"
     inkscape:pageopacity="0"
     inkscape:pagecheckerboard="0"
     inkscape:deskcolor="#505050"
     showgrid="true"
     inkscape:zoom="33.441854"
     inkscape:cx="12.544161"
     inkscape:cy="11.348055"
     inkscape:window-width="2560"
     inkscape:window-height="1369"
     inkscape:window-x="1912"
     inkscape:window-y="-8"
     inkscape:window-maximized="1"
     inkscape:current-layer="svg9">
    <inkscape:grid
       id="grid9"
       units="px"
       originx="0"
       originy="0"
       spacingx="1"
       spacingy="1"
       empcolor="#0099e5"
       empopacity="0.30196078"
       color="#0099e5"
       opacity="0.14901961"
       empspacing="5"
       enabled="true"
       visible="true" />
  </sodipodi:namedview>
  <g
     id="g9"
     transform="matrix(0.03245579,0,0,0.03245579,-5.8220129,-5.6108466)">
    <path
       d="m 572.375,518.875 c 114.48205,24.91842 264.17501,59.42763 264.625,59.5 9.86752,1.69014 18.57503,3.35156 26,10.625 0.066,54.41055 -18.13068,106.30859 -27.40918,159.41406 -0.61719,2.70135 -1.39952,5.08368 -2.59082,7.58594 -17.20525,8.91044 -43.81784,6.2596 -62,2 l -3.16406,-0.65625 C 759.78142,755.55858 752.47277,752.45033 745,749 l -2.72266,-1.21875 C 729.37341,741.72806 717.12772,731.63269 707.375,721.25 c -7.89822,-8.15363 -16.96012,-12.22575 -28.1875,-12.625 -11.81776,0.21282 -20.07878,5.17407 -28.25781,13.47656 l -2.11719,2.21094 C 624.61094,748.97464 588.26834,760.63909 554.448,761.28345 522.60019,761.54702 490.00967,755.45004 464,736 l -2.60156,-1.92969 c -4.45553,-3.43476 -8.4388,-7.07611 -12.33594,-11.13281 -6.94313,-7.09621 -15.20463,-13.31184 -25.35937,-14.23828 C 412.20447,708.66022 403.63104,710.11275 395,718 c -1.907,1.907 -3.80174,3.82233 -5.6875,5.75 -23.49876,23.95109 -55.2379,37.17863 -88.75,37.5625 C 288.37149,761.284 276.41739,759.35937 265,755 c -0.66376,-3.29776 -29.0121,-147.2305 -30,-150 -0.98694,-11.97269 -0.98694,-11.97269 1.375,-17.0625 6.78583,-7.59366 195.96267,-46.54911 289.41412,-68.94849 17.11474,-4.10149 29.47042,-4.32219 46.58588,-0.11401 z"
       fill="#E1E1E1"
       id="path2"
       style="fill:#000000"
       sodipodi:nodetypes="cccccccccccccccccccccccccc" />
    <path
       id="path3"
       d="M 502.3125,262.1875 C 496.06772,319.8722 495.10232,329.81324 488,386 c -32.10096,4.6455 -92.34588,7.83913 -114.77735,15.51425 -7.51436,40.91817 -2.49292,96.66021 -2.22274,138.48575 79.58777,-12.71301 168.21169,-42.04999 186.8789,-37.54688 56.88436,11.8013 112.90063,27.33729 170.1211,37.54688 -0.72558,-45.38519 0.70643,-107.68169 -3.58729,-135.58869 C 699.44257,393.49799 643.12294,389.48952 612.00002,385 604.85889,324.59651 603.3242,317.30079 597,263 c -12.01987,-8.37276 -79.88525,-7.15178 -94.6875,-0.8125 z M 517,420 c -0.1485,14.99696 0.42264,29.29814 0.41099,50.05848 0,0 -38.8316,4.40764 -41.05816,3.29436 0.15942,-13.19654 0.004,-35.70877 0.35346,-49.17642 C 492.86456,421.86604 501.7308,421.58582 517,420 Z m 65,0 c 19.78006,1.14189 19.93462,1.39992 39.35347,4.11825 0.29196,24.72828 -0.47532,28.3631 -0.35386,49.88175 -21.28312,-1.89343 -21.3928,-1.0448 -39.2937,-3.35312 C 581.91781,443.9528 582,420 582,420 Z m 112.82391,13.76478 c 0.30081,21.13122 -0.13526,37.15316 -0.0586,48.41131 -15.42032,-1.10335 -18.23277,-1.7178 -37.76478,-4.17604 0.0822,-24.33943 -0.63761,-30.80131 -1.00018,-48 19.1466,1.36435 21.32379,0.88668 38.82356,3.76473 z M 443,429 c 0.10653,19.4477 1.4604,47.8333 1.23521,48.47044 C 425.36322,479.3292 424.99324,479.10009 404,481 404.17992,455.16064 403.6503,450.56681 403.89051,432.43945 424.74434,430.44575 424.95252,430.71336 443,429 Z"
       style="fill:#000000"
       sodipodi:nodetypes="cccccccccccccccccccccccccccccc" />
    <path
       d="m 424,730 c 4.54832,2.30391 7.95172,5.91405 11.4375,9.5625 C 457.76169,762.23213 487.20477,774.25524 518,780 l 2.77368,0.52197 c 9.01081,1.54722 17.86428,1.8765 26.97632,1.85303 l 2.30881,-6.4e-4 C 563.98574,782.33602 577.38182,781.05115 591,778 l 2.53906,-0.56738 c 25.26782,-5.88025 50.12145,-18.59319 68.27344,-37.24512 10.03004,-10.24777 10.03004,-10.24777 17.6875,-10.875 7.59112,0.50607 12.16365,6.30021 17.1875,11.4375 26.07169,26.46792 63.14914,41.26555 99.9375,41.75 25.0927,-0.0392 48.39537,-6.68914 70.375,-18.5 l 1.85645,-0.98096 c 8.0745,-4.29026 15.22372,-9.14992 22.30371,-14.91748 4.914,-3.6365 8.7312,-4.63741 14.83984,-4.10156 5.33739,1.98844 8.45334,4.90668 11,10 0.5077,5.0936 0.66597,9.55707 -1.5,14.25 -26.86837,29.5552 -71.85805,44.66563 -110.66309,46.87305 -44.23748,1.76691 -89.07437,-14.26264 -121.90722,-43.99805 -1.9,-1.3296 -1.9,-1.3296 -4.3086,-1.09375 -3.36187,1.24254 -5.83114,3.21402 -8.55859,5.46875 -40.27845,31.87236 -93.6619,44.09023 -144.30835,38.67969 -8.51496,-1.04076 -75.8884,-13.31969 -103.11792,-44.18677 -1.61777,-1.21032 -1.61777,-1.21032 -3.71728,-0.75464 -2.6057,1.03432 -4.05667,2.59762 -6.04395,4.57422 C 391.67696,793.41835 362.26704,806.97391 334,812 l -2.39453,0.44434 C 269.2518,823.71745 182.55041,777.66162 182,765 c -0.7449,-5.28563 -0.66053,-9.54683 1.5625,-14.4375 3.82954,-4.02592 7.21023,-6.13418 12.6875,-7.1875 10.35501,1.72583 73.79655,61.91769 156.65771,29.48877 C 372.76106,764.6676 389.19407,752.39009 405,738 c 1.49571,-1.33814 2.99536,-2.6719 4.5,-4 l 1.90625,-1.6875 C 415.19645,729.19116 419.29554,729.22222 424,730 Z"
       fill="#DEDEDE"
       id="path4"
       style="fill:#000000"
       sodipodi:nodetypes="cccccccccccccccccccccccccccccccccccc" />
    <path
       d="m 189,746 2,1 -7,7 -1,-2 z"
       fill="#BDBDBD"
       id="path9"
       style="fill:#000000"
       sodipodi:nodetypes="ccccc" />
  </g>
</svg>
